<svg version="1.1" class="svg-google_play" xmlns="http://www.w3.org/2000/svg" xmlns:xlink="http://www.w3.org/1999/xlink" x="0px" y="0px" viewBox="0 0 116 40" enable-background="new 0 0 116 40" xml:space="preserve">
<path d="M116,34.238c0,3.555-2.592,5.762-6.12,5.762H6.381C2.851,40,0,37.129,0,33.574V6.425C0,2.881,2.851,0,6.381,0H109.88
  c3.528,0,6.12,2.881,6.12,6.425V34.238z"/>
<g>
  <g>
    <path fill="#FFFFFF" d="M79.425,28.713l-0.886,0.833c-0.208,0.106-0.403,0.239-0.599,0.317c-0.618,0.278-1.232,0.352-1.786,0.352
      c-0.586,0-1.495-0.039-2.433-0.703c-1.304-0.934-1.875-2.5-1.875-3.867c0-2.852,2.306-4.248,4.204-4.248
      c0.657,0,1.343,0.168,1.89,0.515c0.909,0.606,1.148,1.39,1.289,1.819l-4.32,1.74l-1.416,0.104
      c0.463,2.337,2.036,3.699,3.783,3.699c0.862,0,1.523-0.293,2.109-0.581C79.386,28.691,79.503,28.622,79.425,28.713z
       M76.812,24.082c0.35-0.133,0.543-0.241,0.543-0.503c0-0.73-0.826-1.577-1.825-1.577c-0.725,0-2.106,0.569-2.106,2.548
      c0,0.313,0.034,0.642,0.064,0.977L76.812,24.082z"/>
    <path fill="#FFFFFF" d="M70.402,28.574c0,0.703,0.128,0.82,0.742,0.871c0.312,0.035,0.625,0.066,0.938,0.101l-0.688,0.396h-3.224
      c0.419-0.547,0.487-0.601,0.487-0.977v-0.396l-0.013-10.907h-1.411l1.372-0.661h2.617c-0.57,0.327-0.742,0.527-0.82,1.171V28.574z
      "/>
    <path fill="#FFFFFF" d="M65.402,22.295c0.417,0.352,1.289,1.084,1.289,2.484c0,1.351-0.763,1.998-1.527,2.593
      c-0.238,0.242-0.519,0.499-0.519,0.896c0,0.418,0.28,0.626,0.483,0.797l0.66,0.515c0.793,0.674,1.527,1.299,1.527,2.562
      c0,1.73-1.668,3.464-4.814,3.464c-2.657,0-3.938-1.255-3.938-2.617c0-0.664,0.315-1.602,1.409-2.23
      c1.133-0.699,2.672-0.794,3.5-0.855c-0.258-0.322-0.556-0.667-0.556-1.25c0-0.312,0.103-0.49,0.181-0.703
      c-0.195,0.01-0.391,0.039-0.586,0.039c-1.945,0-3.047-1.448-3.047-2.891c0-0.838,0.391-1.772,1.175-2.451
      c1.052-0.859,2.302-1.015,3.284-1.015h3.783l-1.172,0.664H65.402z M64.096,30.448c-0.145-0.036-0.245-0.036-0.415-0.036
      c-0.175,0-1.17,0.037-1.933,0.311c-0.409,0.142-1.581,0.586-1.581,1.875c0,1.303,1.269,2.239,3.233,2.239
      c1.763,0,2.695-0.833,2.695-1.97C66.096,31.934,65.48,31.426,64.096,30.448z M64.621,26.957c0.43-0.417,0.469-1.001,0.469-1.351
      c0-1.311-0.786-3.368-2.311-3.368c-0.481,0-1.003,0.243-1.283,0.61c-0.312,0.383-0.408,0.881-0.408,1.351
      c0,1.235,0.721,3.276,2.283,3.276C63.839,27.476,64.336,27.246,64.621,26.957z"/>
    <path fill="#FFFFFF" d="M54.025,30.176c-2.91,0-4.473-2.266-4.473-4.324c0-2.395,1.956-4.455,4.746-4.455
      c2.705,0,4.385,2.109,4.385,4.326C58.683,27.889,57.009,30.176,54.025,30.176z M56.317,28.691
      c0.452-0.586,0.555-1.319,0.555-2.031c0-1.604-0.771-4.696-3.042-4.696c-0.605,0-1.216,0.237-1.66,0.624
      c-0.713,0.644-0.84,1.455-0.84,2.236c0,1.817,0.898,4.805,3.119,4.805C55.161,29.629,55.9,29.277,56.317,28.691z"/>
    <path fill="#FFFFFF" d="M44.263,30.176c-2.914,0-4.473-2.266-4.473-4.324c0-2.395,1.969-4.455,4.752-4.455
      c2.693,0,4.385,2.109,4.385,4.326C48.927,27.889,47.256,30.176,44.263,30.176z M46.564,28.691
      c0.432-0.586,0.547-1.319,0.547-2.031c0-1.604-0.774-4.696-3.047-4.696c-0.605,0-1.211,0.237-1.646,0.624
      c-0.717,0.644-0.848,1.455-0.848,2.236c0,1.817,0.899,4.805,3.119,4.805C45.408,29.629,46.134,29.277,46.564,28.691z"/>
    <path fill="#FFFFFF" d="M38.631,29.551l-2.458,0.547c-0.996,0.157-1.895,0.312-2.842,0.312c-4.739,0-6.553-3.502-6.553-6.23
      c0-3.333,2.561-6.432,6.952-6.432c0.919,0,1.817,0.136,2.63,0.363c1.288,0.356,1.888,0.806,2.27,1.066l-1.43,1.361l-0.6,0.136
      l0.429-0.685c-0.583-0.569-1.657-1.619-3.684-1.619c-2.71,0-4.753,2.062-4.753,5.074c0,3.225,2.331,6.264,6.077,6.264
      c1.105,0,1.672-0.214,2.188-0.43v-2.77l-2.598,0.152l1.375-0.742h3.644l-0.449,0.43c-0.117,0.101-0.137,0.131-0.168,0.273
      c-0.017,0.156-0.03,0.657-0.03,0.82V29.551z"/>
  </g>
  <g>
    <path fill="#FFFFFF" d="M84.699,28.79v4.667h-0.922V21.572h0.922v1.355c0.616-0.871,1.719-1.57,3.007-1.57
      c2.297,0,3.835,1.749,3.835,4.518c0,2.738-1.538,4.52-3.835,4.52C86.495,30.395,85.402,29.771,84.699,28.79z M90.558,25.875
      c0-2.092-1.094-3.678-3.009-3.678c-1.21,0-2.343,0.941-2.851,1.765v3.792c0.508,0.82,1.641,1.797,2.851,1.797
      C89.464,29.551,90.558,27.949,90.558,25.875z"/>
    <path fill="#FFFFFF" d="M92.822,30.176V18.291h0.918v11.885H92.822z"/>
    <path fill="#FFFFFF" d="M104.152,32.69c0.195,0.096,0.54,0.142,0.742,0.142c0.581,0,0.977-0.234,1.328-1.055l0.664-1.523
      l-3.64-8.682h1.022l3.139,7.514l3.11-7.514h1.053l-4.459,10.499c-0.46,1.073-1.202,1.602-2.191,1.602
      c-0.3,0-0.69-0.06-0.925-0.131L104.152,32.69z"/>
    <path fill="#FFFFFF" d="M101.443,30.15c-0.064-0.287-0.104-0.561-0.143-0.78c-0.039-0.21-0.039-0.444-0.039-0.677
      c-0.322,0.467-0.781,0.857-1.357,1.17c-0.567,0.312-1.114,0.468-1.873,0.468c-0.908,0-1.607-0.233-2.103-0.682
      c-0.491-0.45-0.756-1.066-0.756-1.83c0-0.769,0.373-1.394,1.089-1.877c0.738-0.491,1.675-0.728,2.824-0.728h2.176v-1.057
      c0-0.623-0.222-1.102-0.632-1.454c-0.423-0.351-1.009-0.53-1.79-0.53c-0.697,0-1.25,0.16-1.684,0.473
      c-0.427,0.329-0.659,0.729-0.659,1.202h-0.938l-0.024-0.039c-0.03-0.655,0.259-1.221,0.893-1.709
      c0.633-0.493,1.461-0.742,2.475-0.742c1.007,0,1.823,0.242,2.438,0.726c0.625,0.485,0.938,1.179,0.938,2.083v4.252
      c0,0.31,0,0.589,0.039,0.887c0.039,0.285,0.117,0.564,0.195,0.846H101.443z M98.142,29.473c0.793,0,1.361-0.168,1.947-0.513
      c0.567-0.347,0.959-0.812,1.172-1.359v-1.644h-2.188c-0.82,0-1.52,0.189-2.056,0.547c-0.537,0.381-0.813,0.82-0.813,1.341
      c0,0.495,0.174,0.886,0.525,1.188C97.078,29.322,97.55,29.473,98.142,29.473z"/>
  </g>
</g>
<g>
  <polygon fill="none" points="14.669,25.377 17.644,22.412 17.642,22.412 14.669,25.377 5.176,15.889 5.175,15.889 14.669,25.38 
    5.158,34.902 5.158,34.902 14.669,25.38 17.658,28.379 17.658,28.379  "/>
  
    <linearGradient id="SVGID_1_" gradientUnits="userSpaceOnUse" x1="487.2456" y1="-487.5098" x2="474.7155" y2="-495.3517" gradientTransform="matrix(0.7071 0.7071 -0.7071 0.7071 -676.583 24.8024)">
    <stop  offset="0" style="stop-color:#D6FFA1"/>
    <stop  offset="0.3264" style="stop-color:#93E2A7"/>
    <stop  offset="1" style="stop-color:#00A3B5"/>
  </linearGradient>
  <path fill="url(#SVGID_1_)" d="M17.642,22.412L6.053,16.029c-0.329-0.18-0.638-0.219-0.876-0.141l9.493,9.488L17.642,22.412z"/>
  
    <linearGradient id="SVGID_2_" gradientUnits="userSpaceOnUse" x1="479.9712" y1="-494.2119" x2="496.2145" y2="-489.9657" gradientTransform="matrix(0.7071 0.7071 -0.7071 0.7071 -676.583 24.8024)">
    <stop  offset="0" style="stop-color:#FF177B"/>
    <stop  offset="0.6721" style="stop-color:#FFA976"/>
    <stop  offset="1" style="stop-color:#FFEC73"/>
  </linearGradient>
  <path fill="url(#SVGID_2_)" d="M17.658,28.379l3.964-2.188c0.801-0.43,0.801-1.162,0-1.601l-3.979-2.179l-2.974,2.965
    L17.658,28.379z"/>
  
    <linearGradient id="SVGID_3_" gradientUnits="userSpaceOnUse" x1="489.0376" y1="-481.5527" x2="471.4052" y2="-491.9266" gradientTransform="matrix(0.7071 0.7071 -0.7071 0.7071 -676.583 24.8024)">
    <stop  offset="0" style="stop-color:#63FFD4"/>
    <stop  offset="0.4854" style="stop-color:#32A0BA"/>
    <stop  offset="0.8349" style="stop-color:#1262A9"/>
    <stop  offset="1" style="stop-color:#064AA2"/>
  </linearGradient>
  <path fill="url(#SVGID_3_)" d="M5.175,15.889c-0.354,0.109-0.584,0.469-0.584,1.006v16.992c0,0.547,0.222,0.898,0.566,1.016
    l9.512-9.522L5.175,15.889z"/>
  
    <linearGradient id="SVGID_4_" gradientUnits="userSpaceOnUse" x1="495.4321" y1="-489.79" x2="484.5779" y2="-475.4901" gradientTransform="matrix(0.7071 0.7071 -0.7071 0.7071 -676.583 24.8024)">
    <stop  offset="0" style="stop-color:#FF4521"/>
    <stop  offset="0.3411" style="stop-color:#D43E65"/>
    <stop  offset="0.7935" style="stop-color:#9F36B9"/>
    <stop  offset="1" style="stop-color:#8A33DB"/>
  </linearGradient>
  <path fill="url(#SVGID_4_)" d="M5.158,34.902c0.248,0.078,0.555,0.039,0.895-0.151l11.605-6.372l-2.988-2.999L5.158,34.902z"/>
</g>
<g>
  <g>
    <path fill="#FFFFFF" d="M26.759,8.545c0-1.829,1.358-3.005,3.047-3.005c1.133,0,1.872,0.544,2.326,1.208l-0.822,0.47
      c-0.312-0.431-0.859-0.768-1.504-0.768c-1.152,0-2.002,0.864-2.002,2.095c0,1.211,0.85,2.092,2.002,2.092
      c0.586,0,1.113-0.267,1.37-0.517V9.225h-1.741V8.33h2.754v2.166c-0.566,0.627-1.387,1.057-2.383,1.057
      C28.117,11.553,26.759,10.361,26.759,8.545z"/>
    <path fill="#FFFFFF" d="M33.445,11.437V5.635h3.978v0.898h-2.959v1.5h2.901v0.894h-2.901v1.616h2.959v0.894H33.445z"/>
    <path fill="#FFFFFF" d="M40.236,11.437V6.533h-1.758V5.635h4.531v0.898h-1.758v4.903H40.236z"/>
    <path fill="#FFFFFF" d="M46.546,11.437V5.635h1.019v5.802H46.546z"/>
    <path fill="#FFFFFF" d="M50.401,11.437V6.533h-1.756V5.635h4.532v0.898h-1.755v4.903H50.401z"/>
    <path fill="#FFFFFF" d="M56.457,8.545c0-1.735,1.231-3.005,2.969-3.005c1.729,0,2.969,1.271,2.969,3.005
      c0,1.732-1.24,3.002-2.969,3.002C57.688,11.547,56.457,10.277,56.457,8.545z M61.342,8.545c0-1.201-0.745-2.095-1.917-2.095
      s-1.914,0.894-1.914,2.095c0,1.191,0.742,2.092,1.914,2.092S61.342,9.736,61.342,8.545z"/>
    <path fill="#FFFFFF" d="M67.628,11.437l-3.03-4.142v4.142H63.58V5.635h1.041l2.969,4.023V5.635h1.016v5.802H67.628z"/>
  </g>
</g>
</svg>