<svg version="1.1" class="svg-icon--reality" xmlns="http://www.w3.org/2000/svg" xmlns:xlink="http://www.w3.org/1999/xlink" x="0px" y="0px" viewBox="0 0 60 60" enable-background="new 0 0 60 60" xml:space="preserve">
<path d="M41.346,7.614c-0.5-0.229-1.095-0.007-1.324,0.496c-0.229,0.502-0.007,1.095,0.496,1.324C49.315,13.439,55,22.166,55,31.666
  c0,7.095-3.097,13.492-8.03,17.97c-0.309-10.226-3.749-14.92-6.545-18.714c-1.99-2.703-3.563-4.837-3.563-8.321V3.908l-0.189-0.262
  C36.583,3.523,34.444,0.633,30,0.633c-4.446,0-6.585,2.89-6.674,3.013l-0.189,0.262v18.692c0,3.483-1.572,5.618-3.563,8.321
  c-2.795,3.794-6.234,8.489-6.543,18.714C8.096,45.158,5,38.761,5,31.666c0-9.501,5.686-18.229,14.484-22.233
  c0.503-0.229,0.725-0.822,0.496-1.324c-0.229-0.503-0.822-0.726-1.324-0.496C9.146,11.941,3,21.382,3,31.666
  c0,14.612,12.112,26.5,27,26.5s27-11.888,27-26.5C57,21.383,50.855,11.943,41.346,7.614z M14.978,51.235
  C14.982,51.198,15,51.165,15,51.126c0-10.624,3.285-15.083,6.184-19.019c2.033-2.759,3.953-5.366,3.953-9.507V4.595
  C25.652,4.039,27.23,2.633,30,2.633c2.769,0,4.345,1.404,4.861,1.962v18.006c0,4.141,1.921,6.748,3.954,9.507
  C41.714,36.043,45,40.502,45,51.126c0,0.039,0.018,0.072,0.022,0.109c-4.186,3.094-9.389,4.931-15.022,4.931
  S19.163,54.329,14.978,51.235z"/>
<path d="M36.915,41.599l-10-6c-0.309-0.186-0.694-0.19-1.007-0.013s-0.507,0.51-0.507,0.87v12c0,0.36,0.194,0.692,0.507,0.87
  c0.153,0.087,0.323,0.13,0.493,0.13c0.178,0,0.356-0.048,0.515-0.143l10-6c0.301-0.181,0.485-0.506,0.485-0.857
  S37.216,41.779,36.915,41.599z M27.4,46.689v-8.467l7.057,4.233L27.4,46.689z"/>
</svg>