<svg version="1.1" class="svg-icon--mail" xmlns="http://www.w3.org/2000/svg" xmlns:xlink="http://www.w3.org/1999/xlink" x="0px" y="0px" viewBox="0 0 60 60" enable-background="new 0 0 60 60" xml:space="preserve">
<path d="M20.249,42.81c7.12-2.528,14.641-3.468,27.751-3.468h1V22.621c0-0.552-0.447-1-1-1s-1,0.448-1,1v14.723
    c-12.75,0.048-20.25,1.035-27.42,3.581c-4.584,1.628-8.143,1.58-10.577-0.138C5.52,38.328,5,32.974,5,30C5,16.215,16.215,5,30,5
    c6.675,0,12.952,2.601,17.674,7.322c0.391,0.391,1.023,0.391,1.414,0s0.391-1.023,0-1.414C43.988,5.809,37.209,3,30,3
    C15.112,3,3,15.112,3,30c0,3.36,0.63,9.442,4.85,12.421c1.596,1.127,3.525,1.69,5.771,1.69C15.59,44.111,17.804,43.678,20.249,42.81
    z"/>
<path d="M56.859,27.079c-0.228-2.201-0.678-4.423-1.705-6.517c-0.527-1.035-1.212-2.05-2.187-2.857
    c-0.49-0.398-1.052-0.729-1.66-0.966c-0.615-0.209-1.265-0.356-1.905-0.346c-1.294-0.029-2.476,0.384-3.525,0.888
    c-1.049,0.522-1.999,1.166-2.861,1.879c-1.769,1.467-3.144,3.018-4.684,4.519l-8.35,8.389l-13.67-13.069h23.122c0.553,0,1-0.448,1-1
    s-0.447-1-1-1H13v21.343c0,0.553,0.448,1,1,1s1-0.447,1-1V20.201l14.305,13.987l0.701,0.686l0.704-0.699l0.001-0.001l9.039-9.082
    c1.514-1.481,3-3.124,4.528-4.379c1.551-1.26,3.365-2.332,5.1-2.319c1.729-0.042,3.135,1.325,3.989,3.064
    c0.863,1.75,1.297,3.782,1.503,5.818c0.094,1.005,0.148,2.094,0.113,3.05c-0.078,1.05-0.045,2.178-0.25,3.137l-0.228,1.492
    c-0.11,0.497-0.252,0.993-0.376,1.49c-0.21,1.009-0.621,1.954-0.961,2.922c-0.152,0.492-0.427,0.933-0.634,1.402
    c-0.233,0.456-0.422,0.938-0.69,1.375c-0.551,0.865-1.02,1.786-1.675,2.582l-0.927,1.229l-1.037,1.14l-0.518,0.57l-0.569,0.519
    l-1.14,1.036c-1.615,1.262-3.305,2.458-5.182,3.3c-1.831,0.938-3.819,1.507-5.812,1.98c-2.02,0.339-4.082,0.583-6.124,0.441
    c-0.529-0.033-1.076-0.041-1.591-0.094l-1.491-0.232c-0.995-0.099-1.988-0.456-2.982-0.681c-0.496-0.131-0.967-0.342-1.453-0.508
    c-0.476-0.191-0.979-0.317-1.431-0.564c-0.919-0.454-1.87-0.854-2.726-1.427c-1.797-1.005-3.358-2.364-4.862-3.757l-0.052-0.048
    c-0.404-0.377-1.036-0.354-1.412,0.05s-0.354,1.036,0.05,1.412c1.619,1.508,3.311,2.969,5.249,4.059
    c0.926,0.615,1.95,1.053,2.945,1.54c0.49,0.264,1.031,0.406,1.546,0.611c0.524,0.181,1.034,0.404,1.57,0.547
    c1.085,0.251,2.121,0.621,3.258,0.743l1.675,0.251c0.546,0.055,1.07,0.062,1.606,0.095c2.226,0.15,4.436-0.106,6.622-0.478
    c2.155-0.508,4.302-1.129,6.282-2.139c2.026-0.913,3.854-2.199,5.595-3.565l1.231-1.117l0.613-0.562l0.561-0.614l1.117-1.231
    c0.345-0.434,0.669-0.885,1.003-1.326c0.703-0.862,1.217-1.852,1.808-2.789c0.289-0.474,0.496-0.991,0.747-1.485
    c0.225-0.506,0.517-0.984,0.684-1.515c0.371-1.045,0.809-2.069,1.04-3.157c0.135-0.539,0.285-1.071,0.404-1.615l0.256-1.676
    c0.22-1.141,0.178-2.164,0.258-3.243C57.021,29.249,56.96,28.199,56.859,27.079z"/>
</svg>