<svg version="1.1" class="svg-icon--grapes" xmlns="http://www.w3.org/2000/svg" xmlns:xlink="http://www.w3.org/1999/xlink" x="0px" y="0px" viewBox="0 0 60 60" enable-background="new 0 0 60 60" xml:space="preserve">
<path d="M30,56.873c-14.888,0-27-12.112-27-27c0-8.105,3.595-15.711,9.864-20.866c0.426-0.35,1.057-0.289,1.408,0.137
  c0.351,0.427,0.289,1.057-0.137,1.408C8.329,15.326,5,22.368,5,29.873c0,13.785,11.215,25,25,25s25-11.215,25-25
  c0-7.504-3.33-14.547-9.137-19.322c-0.426-0.351-0.487-0.981-0.137-1.408c0.352-0.426,0.98-0.488,1.406-0.137
  C53.404,14.163,57,21.769,57,29.873C57,44.761,44.889,56.873,30,56.873z"/>
<g>
  <path d="M17.998,29.873c-2.757,0-5-2.243-5-5s2.243-5,5-5s5,2.243,5,5S20.755,29.873,17.998,29.873z M17.998,21.873
    c-1.654,0-3,1.346-3,3s1.346,3,3,3s3-1.346,3-3S19.652,21.873,17.998,21.873z"/>
  <path d="M30,29.873c-2.757,0-5-2.243-5-5s2.243-5,5-5s5,2.243,5,5S32.757,29.873,30,29.873z M30,21.873c-1.654,0-3,1.346-3,3
    s1.346,3,3,3s3-1.346,3-3S31.654,21.873,30,21.873z"/>
  <path d="M42.002,29.873c-2.757,0-5-2.243-5-5s2.243-5,5-5s5,2.243,5,5S44.759,29.873,42.002,29.873z M42.002,21.873
    c-1.654,0-3,1.346-3,3s1.346,3,3,3s3-1.346,3-3S43.656,21.873,42.002,21.873z"/>
  <path d="M23.998,39.874c-2.757,0-5-2.243-5-5s2.243-5,5-5s5,2.243,5,5S26.755,39.874,23.998,39.874z M23.998,31.874
    c-1.654,0-3,1.346-3,3s1.346,3,3,3s3-1.346,3-3S25.652,31.874,23.998,31.874z"/>
  <path d="M36,39.874c-2.757,0-5-2.243-5-5s2.243-5,5-5s5,2.243,5,5S38.757,39.874,36,39.874z M36,31.874c-1.654,0-3,1.346-3,3
    s1.346,3,3,3s3-1.346,3-3S37.654,31.874,36,31.874z"/>
  <path d="M30,49.875c-2.757,0-5-2.243-5-5s2.243-5,5-5s5,2.243,5,5S32.757,49.875,30,49.875z M30,41.875c-1.654,0-3,1.346-3,3
    s1.346,3,3,3s3-1.346,3-3S31.654,41.875,30,41.875z"/>
</g>
<g>
  <path d="M34.946,16.583c-0.753,0-1.277-0.075-1.3-0.078l-0.738-0.107l-0.107-0.739c-0.025-0.171-0.584-4.228,1.696-6.508
    c1.466-1.466,3.643-1.774,5.211-1.774c0.751,0,1.274,0.074,1.296,0.077l0.74,0.107l0.106,0.74c0.025,0.172,0.581,4.229-1.698,6.508
    C38.687,16.275,36.512,16.583,34.946,16.583z M34.725,14.58c0.956,0.025,2.897-0.07,4.014-1.186
    c1.084-1.083,1.213-2.954,1.188-4.015c-0.965-0.024-2.9,0.072-4.015,1.186C34.826,11.65,34.699,13.52,34.725,14.58z"/>
  <path d="M23.628,12.908c-1.23,0-2.938-0.242-4.089-1.393c-1.857-1.857-1.329-5.218-1.306-5.36l0.102-0.621l0.621-0.101
    c0.021-0.003,0.534-0.085,1.247-0.085c1.237,0,2.953,0.242,4.107,1.393c1.859,1.859,1.33,5.215,1.307,5.357l-0.102,0.618
    l-0.618,0.103C24.875,12.823,24.352,12.908,23.628,12.908z M19.9,7.105c-0.036,0.945,0.091,2.388,0.877,3.173
    c0.766,0.766,2.115,0.88,2.852,0.88c0.115,0,0.223-0.002,0.323-0.007c0.037-0.944-0.091-2.385-0.877-3.172
    c-0.769-0.766-2.128-0.881-2.871-0.881C20.096,7.099,19.994,7.101,19.9,7.105z"/>
  <path d="M30,9.98l-0.488-0.328c-0.244-0.164-2.387-1.663-2.387-3.727c0-2.06,2.142-3.562,2.386-3.726L30,1.871L30.488,2.2
    c0.244,0.165,2.387,1.665,2.387,3.726c0,2.062-2.143,3.562-2.387,3.726L30,9.98z M30,4.046c-0.503,0.459-1.125,1.188-1.125,1.879
    c0,0.7,0.62,1.426,1.123,1.882c0.504-0.459,1.127-1.188,1.127-1.882C31.125,5.234,30.504,4.506,30,4.046z"/>
</g>
</svg>