<svg version="1.1" id="logo_symbol" xmlns="http://www.w3.org/2000/svg" xmlns:xlink="http://www.w3.org/1999/xlink" x="0px" y="0px" viewBox="0 0 32 32" enable-background="new 0 0 32 32" xml:space="preserve">
<path d="M11.619,10.33L10.94,9.069c-3.978,2.134-4.856,5.009-4.4,6.823c0.391,1.553,1.721,2.556,3.388,2.556
  c3.308,0,5.092-3.171,5.092-6.154c0-3.567-1.891-5.782-4.934-5.782c-3.361,0-5.188,2.876-5.265,2.999l1.215,0.758
  c0.014-0.023,1.497-2.324,4.049-2.324c2.257,0,3.501,1.545,3.501,4.35c0,2.347-1.257,4.722-3.659,4.722
  c-1.004,0-1.77-0.564-1.998-1.474C7.599,14.228,8.367,12.075,11.619,10.33z"/>
<path d="M31.886,14.283c-0.269-1.836-0.923-3.76-2.381-5.227c-0.732-0.714-1.679-1.257-2.693-1.484
  c-0.505-0.146-1.023-0.135-1.535-0.151c-0.339,0.034-0.471,0.042-0.755,0.097c-0.268,0.074-0.571,0.126-0.798,0.235
  c-0.304,0.12-0.588,0.262-0.862,0.414c-0.14-0.08-0.279-0.167-0.417-0.238c-1.067-0.525-2.14-0.712-3.07-0.799
  c-0.469-0.043-0.907-0.064-1.309-0.04c-0.406,0-0.774,0.027-1.103,0.075c-0.667,0.05-1.175,0.157-1.524,0.225
  c-0.35,0.066-0.536,0.101-0.536,0.101l0.368,1.384c0,0,0.168-0.044,0.483-0.126c0.315-0.084,0.776-0.217,1.373-0.303
  c0.299-0.059,0.631-0.095,0.991-0.108c0.363-0.039,0.752-0.033,1.167-0.012c0.768,0.052,1.629,0.203,2.474,0.569
  c-0.978,0.761-1.781,1.693-2.547,2.604c-1.21,1.485-2.264,3.062-3.319,4.608c-1.049,1.55-2.115,3.073-3.328,4.413
  c-1.21,1.315-2.623,2.47-4.213,2.793c-0.197,0.043-0.395,0.082-0.595,0.084l-0.3,0.02c-0.002,0.001-0.032,0.003-0.045,0.004
  l-0.067-0.005l-0.173-0.012l-0.688-0.049l-0.554-0.13c-0.75-0.209-1.49-0.579-2.079-1.113c-0.587-0.545-1.062-1.212-1.434-1.938
  c-0.336-0.748-0.609-1.53-0.752-2.346c-0.588-3.271,0.17-6.651,1.636-9.337c1.475-2.715,3.771-4.704,6.213-5.771
  c2.442-1.113,4.984-1.325,7.179-1.21c2.183,0.138,4.008,0.741,5.423,1.424c0.725,0.309,1.296,0.725,1.826,1.023
  c0.486,0.368,0.914,0.663,1.237,0.932c0.626,0.563,0.958,0.864,0.958,0.864l0.049,0.044c0.293,0.266,0.745,0.244,1.012-0.048
  c0.266-0.292,0.243-0.744-0.049-1.01c0,0-0.363-0.331-1.047-0.951c-0.354-0.296-0.819-0.624-1.353-1.028
  c-0.58-0.333-1.207-0.788-2-1.132c-1.535-0.752-3.58-1.435-5.983-1.591c-2.351-0.131-5.141,0.08-7.861,1.327
  C6.185,2.55,3.623,4.788,2.007,7.778c-1.605,2.969-2.44,6.623-1.779,10.32c0.164,0.923,0.475,1.832,0.879,2.716
  c0.443,0.867,1.023,1.69,1.773,2.379c0.763,0.686,1.691,1.165,2.706,1.44l0.793,0.165l0.69,0.048l0.172,0.013l0.086,0.006
  c0.13,0.008,0.093-0.002,0.147-0.002l0.392-0.024c0.264-0.007,0.52-0.055,0.777-0.109c2.085-0.444,3.683-1.833,4.985-3.241
  c1.302-1.442,2.394-3.017,3.451-4.581c1.055-1.567,2.044-3.155,3.13-4.633c0.551-0.731,1.124-1.438,1.772-2.039
  c0.273-0.257,0.562-0.492,0.859-0.703c0.537,0.413,1.012,0.938,1.317,1.574c0.514,0.958,0.468,2.092,0.247,3.314
  c-0.064,0.305-0.157,0.604-0.284,0.889c-0.262-0.248-0.55-0.475-0.878-0.658c-0.748-0.385-1.738-0.645-2.702-0.131
  c-0.472,0.247-0.852,0.759-0.958,1.289c-0.034,0.133-0.045,0.263-0.054,0.393c-0.001,0.052-0.007,0.021-0.003,0.142l0.003,0.068
  l0.013,0.135c0.049,0.32,0.132,0.588,0.289,0.828c0.307,0.496,0.837,0.792,1.315,0.875c0.489,0.098,0.952,0.047,1.37-0.077
  c0.604-0.187,1.115-0.496,1.55-0.875c0.198,0.476,0.341,0.981,0.409,1.502c0.037,0.322,0.069,0.637,0.081,0.942l0.005,0.513
  l-0.017,0.445c-0.067,1.208-0.589,2.271-1.41,2.86c-0.405,0.3-0.876,0.491-1.362,0.582l-0.336,0.05
  c-0.121,0.014-0.281,0.015-0.418,0.022c-0.199-0.009-0.471-0.007-0.683-0.051c-0.901-0.134-1.567-0.616-1.869-1.191
  c-0.324-0.571-0.322-1.213-0.229-1.719c0.104-0.532,0.273-0.878,0.412-1.15c0.173-0.294,0.264-0.451,0.264-0.451l-1.235-0.728
  c0,0-0.093,0.156-0.269,0.448c-0.177,0.323-0.462,0.885-0.605,1.6c-0.139,0.715-0.191,1.731,0.366,2.72
  c0.523,0.996,1.682,1.755,2.938,1.92c0.323,0.06,0.614,0.062,0.977,0.064c0.146-0.009,0.274-0.008,0.439-0.024
  c0.174-0.023,0.354-0.045,0.527-0.075c0.666-0.129,1.35-0.404,1.946-0.849c1.222-0.884,1.909-2.432,1.979-3.932
  c0.067-1.434-0.17-3.03-0.99-4.405c-0.017-0.028-0.038-0.055-0.055-0.083c0.326-0.488,0.571-1.019,0.742-1.542
  c0.239-0.74,0.32-1.412,0.31-2.208c-0.021-0.173-0.017-0.304-0.059-0.507c-0.044-0.2-0.086-0.41-0.143-0.596
  c-0.117-0.354-0.274-0.685-0.46-0.987c-0.377-0.615-0.842-1.121-1.345-1.541c0.044-0.016,0.088-0.04,0.132-0.054
  c0.197-0.083,0.365-0.07,0.542-0.12c0.17-0.025,0.502-0.024,0.622-0.028c0.409,0.057,0.816,0.083,1.195,0.208
  c0.761,0.219,1.465,0.588,2.031,1.149c1.13,1.134,1.723,2.768,1.952,4.397c0.404,3.307-0.468,6.651-2.067,9.269
  c-1.591,2.644-3.942,4.566-6.427,5.565c-0.607,0.285-1.25,0.445-1.859,0.647c-0.629,0.12-1.246,0.312-1.844,0.36
  c-0.3,0.038-0.595,0.075-0.887,0.113c-0.298,0.029-0.617,0.029-0.918,0.046c-0.288,0.007-0.641,0.034-0.864,0.025
  c-0.281-0.014-0.559-0.027-0.832-0.041c-2.185-0.124-4.032-0.721-5.442-1.392c-0.725-0.307-1.3-0.714-1.831-1.015
  C7,27.701,6.592,27.422,6.261,27.152c-0.658-0.588-1.009-0.901-1.009-0.901c-0.293-0.262-0.744-0.238-1.008,0.054
  c-0.266,0.294-0.243,0.746,0.05,1.011c0,0,0.349,0.315,1.003,0.907c0.35,0.289,0.834,0.637,1.38,1.04
  c0.579,0.336,1.211,0.782,2.004,1.126c1.546,0.748,3.577,1.413,5.98,1.564c0.299,0.016,0.604,0.03,0.914,0.046
  c0.368,0.005,0.616-0.021,0.936-0.028c0.307-0.018,0.607-0.018,0.931-0.049c0.33-0.041,0.665-0.083,1.005-0.125
  c0.688-0.061,1.34-0.265,2.034-0.403c0.674-0.22,1.376-0.401,2.051-0.717c2.747-1.109,5.365-3.26,7.106-6.172
  C31.388,21.612,32.343,17.998,31.886,14.283z M22.216,16.972c-0.556,0.128-1.067-0.087-1.184-0.334
  c-0.045-0.062-0.05-0.154-0.066-0.188l-0.007-0.136l-0.004-0.044c0-0.009,0.001-0.02,0.001-0.017c0.002-0.051,0-0.103,0.013-0.146
  c0.029-0.184,0.12-0.305,0.271-0.428c0.313-0.241,0.952-0.265,1.461,0.008c0.289,0.134,0.539,0.345,0.757,0.593
  C23.106,16.627,22.672,16.889,22.216,16.972z"/>
</svg>