<svg version="1.1" id="logo_wordmark" xmlns="http://www.w3.org/2000/svg" xmlns:xlink="http://www.w3.org/1999/xlink" x="0px" y="0px"  viewBox="0 0 80 18" enable-background="new 0 0 80 18" xml:space="preserve">
<g>
  <path d="M7.591,5.129V5.21c2.161,0.182,3.461,1.215,3.461,2.755c0,1.885-1.621,2.817-3.861,2.817H1.229v-0.526l1.48-0.507V1.116
    l-1.48-0.507V0.081H6.75c2.161,0,3.741,0.831,3.741,2.535C10.491,3.992,9.531,4.824,7.591,5.129z M5.871,4.905
    c1.3,0,2.3-0.771,2.3-2.088S7.25,0.792,5.97,0.792H5.01v4.113H5.871z M5.01,5.614v4.459h1.26c1.3,0,2.3-0.791,2.3-2.25
    c0-1.398-1.04-2.209-2.4-2.209H5.01z"/>
  <path d="M15.549,10.782l-0.18-0.526l5.101-7.721l1.2-1.724L21.63,0.75l-1.98,0.021h-1.96l-1.36,2.391h-0.521V0.081h8.562
    l0.14,0.508L19.41,8.33l-1.22,1.723l0.02,0.061l1.96-0.02h2.44l1.4-2.656h0.52v3.345H15.549z"/>
  <path d="M28.829,10.256l1.48-0.507V1.116l-1.48-0.507V0.081h9.322v3.224h-0.52l-1.32-2.493H32.61v4.215l3.5-0.365V6.04l-3.5-0.365
    v4.378h3.941l1.4-2.654h0.52v3.384h-9.642V10.256z"/>
  <path d="M43.989,1.258l-1.42-0.648V0.081h3.381l4.76,5.856l1.041,1.358l0.061-0.021l-0.041-1.682l-0.02-4.336L49.87,0.589V0.081
    h4.102v0.508l-1.381,0.669l-0.06,9.524l-0.78,0.081L45.81,3.588L44.79,2.25l-0.08,0.041l0.04,1.662l0.04,5.653l1.88,0.669v0.507
    h-4.121v-0.507l1.38-0.669L43.989,1.258z"/>
  <path d="M59.529,1.116l-1.48-0.507V0.081h5.281v0.528l-1.501,0.507v8.633l1.501,0.507v0.526h-5.281v-0.526l1.48-0.507V1.116z"/>
  <path d="M69.769,7.296l-0.939,2.311l1.62,0.669v0.507h-3.562v-0.507l1.041-0.669l4.061-9.605h1.66l3.98,9.748l1.141,0.507v0.526
    H73.67v-0.526l1.46-0.507l-1-2.453H69.769z M73.85,6.587l-1.08-2.614l-0.78-2.087h-0.08L71.13,3.953l-1.081,2.634H73.85z"/>
</g>
<g>
  <path d="M0,17.294c0,0,1.25-0.035,3.438-0.098c2.188-0.045,5.312-0.109,9.062-0.187c3.75-0.041,8.125-0.135,12.812-0.154
    C30,16.834,35,16.812,40,16.789c5,0.022,10,0.044,14.688,0.065c4.688,0.018,9.062,0.113,12.812,0.154
    c3.75,0.045,6.875,0.146,9.062,0.187C78.75,17.259,80,17.294,80,17.294s-1.25,0.036-3.438,0.1c-2.188,0.04-5.312,0.141-9.062,0.186
    c-3.75,0.042-8.125,0.138-12.812,0.154C50,17.755,45,17.777,40,17.8c-5-0.022-10-0.046-14.688-0.067
    c-4.688-0.019-9.062-0.112-12.812-0.154c-3.75-0.077-6.875-0.142-9.062-0.186C1.25,17.33,0,17.294,0,17.294z"/>
</g>
</svg>