<svg version="1.1" id="Layer_1" xmlns="http://www.w3.org/2000/svg" xmlns:xlink="http://www.w3.org/1999/xlink" x="0px" y="0px" viewBox="0 0 114 114" enable-background="new 0 0 114 114" xml:space="preserve">
<g>
  <path fill="#89bf1d" d="M57,113c-14.716,0-28.616-5.664-39.139-15.948c-0.395-0.386-0.402-1.019-0.017-1.414c0.386-0.394,1.021-0.402,1.414-0.016
    C29.406,105.538,42.81,111,57,111c29.775,0,54-24.225,54-54c0-15.429-5.097-26.538-13.301-28.992
    c-7.848-2.346-17.443,3.723-25.664,16.239c-0.303,0.462-0.923,0.59-1.385,0.287s-0.59-0.923-0.287-1.385
    c12.586-19.162,23.71-18.313,27.909-17.057C107.356,28.809,113,40.652,113,57C113,87.879,87.879,113,57,113z"/>
  <path fill="#89bf1d" d="M21.193,88.666c-1.632,0-3.104-0.29-4.39-0.723C7.646,84.865,1,71.852,1,57C1,26.122,26.122,1,57,1
    c14.958,0,29.021,5.825,39.598,16.402c0.391,0.391,0.391,1.023,0,1.414s-1.023,0.391-1.414,0C84.984,8.617,71.424,3,57,3
    C27.224,3,3,27.224,3,57c0,14.019,6.073,26.235,14.44,29.048c6.601,2.218,13.849-1.57,20.962-10.954
    c0.334-0.438,0.961-0.524,1.401-0.192c0.44,0.334,0.526,0.961,0.193,1.401C32.682,85.952,26.186,88.666,21.193,88.666z"/>
</g>
<g>
  <g>
    <path fill="#89bf1d" d="M47.822,90.443l-0.729,2.313h-0.91v-4.731l11.57-8.503l2.341-1.612l-0.053-0.104l-2.834,0.052l-9.385,0.078l-0.729,2.756
      h-0.91v-6.5h0.91l0.729,2.21l16.848,0.104l0.13,1.222l-13.287,9.698L49.2,89.039l0.025,0.104l2.86-0.052l10.92-0.078l0.728-2.756
      h0.91v6.5h-0.91l-0.728-2.21L47.822,90.443z"/>
    <path fill="#89bf1d" d="M45.04,63.818l0.233-0.13l4.551,4.238l-0.26,0.728l-4.524-1.949V63.818z M64.201,60.387
      c0.494,0.624,0.755,1.326,0.755,2.105c0,1.17-0.78,2.055-2.003,2.236l-0.077,0.13c1.352,1.145,2.08,2.86,2.08,4.316
      c0,2.002-1.274,3.458-3.251,3.458c-2.678,0-4.498-2.626-4.809-7.696c-2.679,0-4.004,0.962-4.004,2.886
      c0,1.015,0.312,2.314,0.909,3.875l-0.936,0.285c-1.015-1.768-1.534-3.406-1.534-4.939c0-2.679,1.69-4.524,5.252-4.524h5.59
      c1.144,0,1.481-0.468,1.248-2.132H64.201z M61.315,69.955c1.222,0,1.82-0.599,1.82-1.82c0-1.092-0.442-2.158-1.301-3.198h-3.848
      C58.117,67.979,59.521,69.955,61.315,69.955z"/>
    <path fill="#89bf1d" d="M64.644,58.827l-0.936,0.26l-8.632-5.929l-2.158-1.689l-0.13,0.025l0.052,2.782v1.847l2.782,1.534v0.909h-3.978v-9.775
      l0.909-0.234l8.659,5.902l2.157,1.664l0.13-0.026l-0.052-2.782v-2.288l-3.042-1.56v-0.91h4.238V58.827z"/>
    <path fill="#89bf1d" d="M63.396,35.661c0.962,1.248,1.561,3.067,1.561,4.653c0,1.742-0.572,3.225-1.69,4.395c-1.145,1.17-2.756,1.742-4.862,1.742
      c-2.261,0-4.003-0.598-5.226-1.794c-1.222-1.222-1.846-2.652-1.846-4.29c0-1.82,0.624-3.198,1.898-4.108
      c1.248-0.91,2.964-1.196,5.147-0.806v8.32c3.303-0.026,4.862-1.326,4.862-4.16c0-1.223-0.233-2.444-0.702-3.719L63.396,35.661z
       M57.259,43.747l-0.285-5.824c-2.912-0.208-4.498,0.832-4.498,2.418C52.476,42.213,54.14,43.513,57.259,43.747z"/>
    <path fill="#89bf1d" d="M53.255,21.465L64.8,26.249v1.898l-11.596,4.731l-0.65,1.612h-0.909v-6.266h0.909l0.65,2.027L59.6,27.68l2.678-1.041
      v-0.104L59.6,25.469l-6.344-2.47l-0.702,2.054h-0.909v-5.122h0.909L53.255,21.465z"/>
  </g>
</g>
</svg>