<svg version="1.1" class="svg-icon--bio" xmlns="http://www.w3.org/2000/svg" xmlns:xlink="http://www.w3.org/1999/xlink" x="0px" y="0px" viewBox="0 0 60 60" enable-background="new 0 0 60 60" xml:space="preserve">
<g>
  <path fill="#89bf1d" d="M55.192,20.27c-0.199-0.515-0.78-0.772-1.293-0.572c-0.516,0.199-0.771,0.778-0.572,1.293C54.438,23.864,55,26.896,55,30
    c0,14.486-9.673,25-23,25c-4.35,0-8.319-1.613-9.799-2.631c-0.454-0.313-1.078-0.196-1.391,0.258
    c-0.312,0.455-0.197,1.078,0.258,1.391C22.812,55.217,27.163,57,32,57c14.252,0,25-11.607,25-27
    C57,26.648,56.392,23.374,55.192,20.27z"/>
  <path fill="#89bf1d" d="M26.545,49.062c2.811-0.615,5.493-1.723,7.951-3.185c2.462-1.468,4.64-3.354,6.581-5.43
    c1.975-2.062,3.536-4.462,4.937-6.918c0.647-1.26,1.32-2.509,1.819-3.833c0.258-0.657,0.568-1.296,0.782-1.969l0.655-2.012
    l0.322-1.008l0.25-1.026l0.501-2.052c0.293-1.375,0.484-2.769,0.73-4.153l0.408-4.189l0.133-4.201V9.039
    c-0.01-0.536-0.452-0.962-0.987-0.952h-0.013h-0.007c-1.25,0.035-2.5,0.033-3.75,0.098c-1.249,0.084-2.5,0.124-3.747,0.276
    l-1.87,0.199l-1.864,0.278c-1.242,0.181-2.476,0.452-3.705,0.72l-1.834,0.465c-0.609,0.166-1.209,0.371-1.813,0.555
    c-0.607,0.174-1.197,0.411-1.791,0.634c-0.595,0.218-1.186,0.449-1.76,0.724c-1.167,0.502-2.297,1.099-3.395,1.748
    c-1.096,0.657-2.152,1.386-3.147,2.197c-0.991,0.815-1.939,1.692-2.782,2.667l-0.636,0.728l-0.581,0.774
    c-0.402,0.505-0.736,1.059-1.082,1.604c-0.357,0.539-0.624,1.13-0.938,1.693c-0.265,0.587-0.542,1.172-0.77,1.775
    c-0.448,1.208-0.831,2.444-1.062,3.709c-1,5.061-0.301,10.316,1.543,15.051l0,0.002c0.113,0.31,0.398,0.542,0.748,0.569
    c0.478,0.038,0.896-0.318,0.934-0.797l0.007-0.093l0.084-1.061c0.046-0.354,0.145-0.708,0.213-1.062
    c0.054-0.357,0.206-0.702,0.314-1.052c0.116-0.35,0.224-0.701,0.394-1.037l0.459-1.02l0.55-0.984
    c0.089-0.174,0.201-0.335,0.304-0.501l18.461-5.008c0.003-0.001,0.011-0.003,0.013-0.004c0.531-0.151,0.839-0.705,0.688-1.236
    c-0.151-0.531-0.705-0.839-1.235-0.688l-16.354,4.663c0.247-0.312,0.497-0.624,0.738-0.939l1.536-1.7l1.646-1.603l1.743-1.505
    c0.597-0.484,1.217-0.941,1.824-1.413c0.601-0.481,1.263-0.882,1.891-1.327c0.627-0.447,1.284-0.853,1.948-1.247
    c0.665-0.391,1.305-0.824,1.995-1.174l2.04-1.1c0.69-0.348,1.395-0.669,2.091-1.005c0.693-0.344,1.399-0.66,2.119-0.946
    l2.143-0.895l0.044-0.019l0.006-0.002c0.508-0.216,0.745-0.803,0.529-1.311c-0.217-0.508-0.804-0.745-1.312-0.529l-2.196,0.934
    c-0.736,0.299-1.461,0.629-2.173,0.987c-0.715,0.351-1.437,0.686-2.146,1.049l-2.097,1.148c-0.708,0.366-1.369,0.817-2.054,1.227
    c-0.683,0.413-1.359,0.836-2.007,1.305c-0.649,0.466-1.33,0.886-1.953,1.39c-0.35,0.276-0.7,0.552-1.052,0.826l0.084-4.055
    c0-0.013,0-0.029,0-0.042c-0.012-0.552-0.469-0.991-1.021-0.979c-0.552,0.012-0.991,0.469-0.979,1.021l0.116,5.556l-0.846,0.741
    L22.15,30.76l-1.608,1.804c-0.489,0.645-1.008,1.265-1.47,1.932c-0.438,0.685-0.929,1.331-1.302,2.063l-0.59,1.074l-0.501,1.13
    c-0.181,0.369-0.304,0.769-0.433,1.165c-0.011,0.035-0.023,0.069-0.034,0.104c-0.879-3.523-1.068-7.216-0.351-10.747
    c0.217-1.167,0.576-2.298,0.99-3.404c0.21-0.552,0.468-1.084,0.71-1.622c0.292-0.512,0.534-1.054,0.864-1.543
    c0.319-0.497,0.624-1.002,0.996-1.462l0.533-0.707l0.587-0.665c0.775-0.892,1.653-1.695,2.572-2.445
    c0.923-0.745,1.908-1.42,2.934-2.029c1.03-0.603,2.092-1.159,3.197-1.628c0.542-0.257,1.103-0.474,1.669-0.678
    c0.563-0.21,1.122-0.433,1.704-0.596c0.578-0.173,1.149-0.367,1.733-0.523l1.76-0.438c1.184-0.252,2.369-0.509,3.572-0.678
    l1.804-0.262l1.815-0.185c1.208-0.144,2.43-0.175,3.646-0.253c0.877-0.042,1.756-0.052,2.635-0.064l-0.097,3.059l-0.395,4.05
    c-0.238,1.332-0.422,2.677-0.703,3.999l-0.481,1.969l-0.239,0.985l-0.309,0.963l-0.626,1.924c-0.203,0.644-0.501,1.249-0.746,1.876
    c-0.475,1.264-1.115,2.446-1.728,3.641c-1.328,2.324-2.799,4.594-4.653,6.523c-1.821,1.946-3.855,3.71-6.143,5.072
    c-2.284,1.356-4.765,2.379-7.344,2.943c-2.576,0.565-5.254,0.67-7.827,0.208c-2.57-0.457-5.029-1.495-7.068-3.086
    c-2.045-1.582-3.64-3.711-4.656-6.105c-0.25-0.602-0.524-1.194-0.668-1.838c-0.149-0.633-0.412-1.257-0.474-1.896
    c-0.095-0.64-0.215-1.264-0.299-1.916l-0.105-2.067c-0.016-2.584,0.334-5.288,1.096-7.817c0.815-2.526,2.011-4.922,3.543-7.088
    c1.515-2.181,3.429-4.076,5.569-5.637c2.144-1.553,4.506-2.834,7.041-3.632c2.547-0.799,5.106-1.193,7.832-1.228l1.989,0.083
    l1.976,0.242l1.911,0.39l1.987,0.576c0.53,0.154,1.085-0.151,1.238-0.682c0.154-0.53-0.15-1.085-0.682-1.239l-1.988-0.576
    L34.39,3.355l-2.133-0.261l-2.146-0.09c-2.795,0.022-5.739,0.46-8.458,1.326c-2.738,0.864-5.292,2.244-7.607,3.922
    c-2.311,1.687-4.375,3.733-6.012,6.086c-1.655,2.338-2.947,4.928-3.826,7.658C3.383,24.762,3,27.579,3.024,30.51l0.105,2.067
    c0.087,0.715,0.218,1.45,0.33,2.174c0.081,0.739,0.356,1.407,0.527,2.114c0.163,0.708,0.464,1.374,0.744,2.047
    c1.134,2.678,2.946,5.104,5.268,6.897c2.314,1.804,5.086,2.967,7.941,3.474C20.799,49.797,23.739,49.677,26.545,49.062z"/>
</g>
</svg>