<svg version="1.1" class="svg-icon--barrel" xmlns="http://www.w3.org/2000/svg" xmlns:xlink="http://www.w3.org/1999/xlink" x="0px" y="0px" viewBox="0 0 60 60" enable-background="new 0 0 60 60" xml:space="preserve">
<path fill="#89bf1d" d="M51.712,12.992c-0.329-0.443-0.955-0.537-1.398-0.208c-0.444,0.329-0.538,0.955-0.209,1.399
  C53.308,18.508,55,23.647,55,29.045c0,13.785-11.215,25-25,25s-25-11.215-25-25c0-5.397,1.693-10.536,4.897-14.861
  c0.329-0.444,0.235-1.07-0.208-1.399c-0.444-0.328-1.07-0.235-1.399,0.208C4.829,17.666,3,23.216,3,29.045c0,14.888,12.112,27,27,27
  s27-12.112,27-27C57,23.216,55.172,17.665,51.712,12.992z"/>
<path fill="#89bf1d" d="M20.359,22.582c-0.058,0.804-0.098,1.62-0.118,2.452c-0.041,1.128-0.002,2.273,0.019,3.418
  c0.08,1.143,0.123,2.288,0.266,3.407c0.012,0.131,0.032,0.257,0.045,0.387C16.238,31.361,14,29.985,14,29.096c0-0.552-0.448-1-1-1
  s-1,0.448-1,1c0,2.539,3.771,4.293,8.841,5.223c0.042,0.274,0.082,0.554,0.125,0.824c0.157,1.063,0.405,2.078,0.595,3.046
  c0.263,0.956,0.458,1.871,0.735,2.694c0.279,0.824,0.494,1.588,0.794,2.237c0.231,0.521,0.408,0.978,0.6,1.378
  C19.567,43.567,17,41.8,17,40.161c0-0.553-0.448-1-1-1s-1,0.447-1,1c0,3.99,6.449,7,15,7c8.552,0,15-3.01,15-7c0-0.553-0.447-1-1-1
  s-1,0.447-1,1c0,1.645-2.586,3.417-6.734,4.347c0.193-0.403,0.371-0.863,0.604-1.388c0.301-0.649,0.516-1.413,0.795-2.237
  c0.278-0.823,0.473-1.738,0.735-2.694c0.19-0.968,0.438-1.982,0.595-3.046c0.043-0.268,0.083-0.545,0.125-0.817
  C44.209,33.398,48,31.642,48,29.096c0-0.552-0.447-1-1-1s-1,0.448-1,1c0,0.892-2.253,2.274-6.611,3.158
  c0.014-0.133,0.034-0.262,0.046-0.395c0.144-1.119,0.187-2.264,0.266-3.407c0.021-1.145,0.061-2.291,0.02-3.418
  c-0.021-0.83-0.061-1.645-0.118-2.447C44.622,21.91,49,20.583,49,18.193c0-0.552-0.447-1.009-0.999-1.009
  c-0.553,0-0.999,0.439-0.999,0.991c-0.192,0.684-2.847,1.75-7.578,2.415c-0.078-0.668-0.17-1.326-0.249-1.954
  c-0.165-0.978-0.345-1.9-0.538-2.748c-0.241-0.847-0.397-1.61-0.67-2.302c-0.262-0.678-0.463-1.314-0.683-1.752
  c-0.046-0.094-0.081-0.165-0.123-0.25c4.271-0.449,8.821-1.441,8.821-3.63c0-3.888-14.362-4-16-4s-16,0.112-16,4
  c0,2.188,4.548,3.18,8.818,3.629c-0.042,0.085-0.077,0.156-0.124,0.25c-0.22,0.438-0.42,1.075-0.683,1.752
  c-0.272,0.691-0.429,1.455-0.67,2.302c-0.193,0.847-0.373,1.77-0.539,2.748c-0.079,0.627-0.169,1.282-0.249,1.949
  c-4.694-0.664-7.332-1.721-7.537-2.403c-0.006-0.547-0.452-0.989-1-0.989c-0.552,0-1,0.448-1,1
  C11,20.577,15.355,21.903,20.359,22.582z M37.082,34.833c-0.142,1.026-0.371,1.999-0.544,2.931
  c-0.243,0.911-0.421,1.793-0.677,2.571c-0.262,0.775-0.443,1.513-0.706,2.118c-0.252,0.608-0.423,1.171-0.646,1.582
  c-0.179,0.362-0.317,0.643-0.426,0.861c-1.265,0.169-2.632,0.265-4.083,0.265c-1.468,0-2.849-0.099-4.125-0.271
  c-0.108-0.219-0.245-0.496-0.422-0.854c-0.224-0.411-0.395-0.974-0.647-1.582c-0.263-0.605-0.444-1.343-0.706-2.118
  c-0.256-0.778-0.433-1.66-0.676-2.571c-0.173-0.932-0.403-1.904-0.544-2.931c-0.01-0.065-0.019-0.133-0.028-0.198
  c2.27,0.303,4.71,0.461,7.149,0.461c2.425,0,4.852-0.156,7.109-0.456C37.1,34.703,37.092,34.77,37.082,34.833z M37.751,25.071
  c0.03,1.087-0.021,2.194-0.048,3.299c-0.067,1.104-0.097,2.211-0.227,3.293c-0.025,0.316-0.065,0.625-0.101,0.937
  c-2.093,0.303-4.546,0.496-7.376,0.496c-2.848,0-5.314-0.195-7.417-0.502c-0.035-0.31-0.074-0.616-0.1-0.931
  c-0.129-1.082-0.158-2.189-0.226-3.293c-0.027-1.105-0.079-2.212-0.048-3.299c0.012-0.767,0.042-1.519,0.085-2.26
  c2.701,0.274,5.452,0.383,7.705,0.383c2.242,0,4.978-0.107,7.666-0.379C37.71,23.555,37.739,24.305,37.751,25.071z M29.982,5.955
  c8.222,0,12.905,1.243,13.883,2c-0.871,0.675-4.693,1.732-11.33,1.956c0.047-0.144,0.082-0.295,0.09-0.456l-0.024-0.341
  c-0.002-0.081-0.068-0.279-0.117-0.411c-0.055-0.162-0.125-0.251-0.193-0.358s-0.142-0.21-0.229-0.289
  c-0.325-0.367-0.74-0.55-1.134-0.692c-0.402-0.114-0.802-0.186-1.183-0.14L29.52,7.245l-0.301,0.064
  c-0.207,0.037-0.363,0.12-0.519,0.189c-0.31,0.146-0.573,0.346-0.774,0.566c-0.198,0.222-0.352,0.452-0.422,0.675
  c-0.168,0.431-0.107,0.726-0.128,0.716l0.005,0.083c0,0,0.009,0.042,0.024,0.122c0.012,0.051,0.019,0.121,0.062,0.251
  c-6.661-0.22-10.495-1.28-11.368-1.957C17.077,7.198,21.76,5.955,29.982,5.955z M28.666,9.712c-0.003-0.029-0.022-0.004-0.027-0.067
  c-0.004-0.059-0.008-0.108-0.01-0.149c-0.001-0.018-0.002-0.027-0.003-0.042c0.016-0.001,0.002-0.079,0.083-0.199
  c0.023-0.063,0.099-0.136,0.189-0.212c0.096-0.075,0.227-0.153,0.392-0.209c0.084-0.029,0.174-0.058,0.244-0.068l0.113-0.033
  l0.212-0.017c0.209-0.021,0.44-0.007,0.661,0.041c0.213,0.059,0.433,0.15,0.58,0.279c0.077,0.048,0.153,0.155,0.174,0.176
  c0.007,0.029,0.04-0.019,0.058,0.072l0.024,0.127l0.013,0.063l0.002,0.013c0.005,0.14-0.048,0.3-0.173,0.456
  c-0.398,0.006-0.799,0.012-1.215,0.012c-0.406,0-0.797-0.005-1.186-0.011C28.721,9.849,28.653,9.731,28.666,9.712z M22.674,18.924
  c0.149-0.93,0.311-1.807,0.485-2.606c0.221-0.777,0.357-1.541,0.576-2.133c0.22-0.606,0.348-1.126,0.557-1.575
  c0.164-0.356,0.291-0.632,0.395-0.859c2.555,0.189,4.718,0.204,5.295,0.204c0.577,0,2.738-0.015,5.291-0.203
  c0.104,0.227,0.231,0.502,0.396,0.859c0.209,0.448,0.338,0.969,0.558,1.575c0.218,0.592,0.354,1.356,0.575,2.133
  c0.174,0.799,0.336,1.676,0.485,2.606c0.07,0.611,0.152,1.249,0.223,1.899c-2.168,0.226-4.672,0.37-7.51,0.37
  c-2.855,0-5.372-0.146-7.548-0.374C22.522,20.17,22.604,19.534,22.674,18.924z"/>
</svg>