<svg version="1.1" class="svg-icon--tasting" xmlns="http://www.w3.org/2000/svg" xmlns:xlink="http://www.w3.org/1999/xlink" x="0px" y="0px" viewBox="0 0 60 60" enable-background="new 0 0 60 60" xml:space="preserve">
<path fill="#e5e622" class="svg-outline" d="M55.009,38.735c-0.514-0.211-1.096,0.036-1.304,0.548c-3.857,9.459-12.949,15.571-23.162,15.571c-13.785,0-25-11.215-25-25
  c0-3.478,0.702-6.845,2.085-10.007c0.222-0.506-0.009-1.096-0.515-1.317c-0.506-0.222-1.096,0.009-1.317,0.515
  c-1.495,3.417-2.253,7.054-2.253,10.809c0,14.888,12.112,27,27,27c11.03,0,20.849-6.601,25.014-16.815
  C55.766,39.527,55.52,38.943,55.009,38.735z"/>
<path fill="#e5e622" class="svg-outline" d="M34.296,5.134c8.099,1.22,15.094,6.356,18.713,13.737c0.173,0.354,0.528,0.56,0.898,0.56c0.147,0,0.298-0.033,0.439-0.102
  c0.496-0.243,0.7-0.842,0.457-1.338C50.896,10.021,43.342,4.475,34.595,3.157c-0.554-0.085-1.056,0.294-1.139,0.84
  C33.374,4.542,33.75,5.052,34.296,5.134z"/>
<path fill="#e5e622" class="svg-tasting__cheese" d="M56.004,23.365c-0.282-0.185-0.639-0.213-0.949-0.078L33.461,32.78c-0.506,0.222-0.735,0.812-0.513,1.317
  c0.222,0.505,0.812,0.736,1.317,0.513l20.191-8.876v7.173l-2.807,1.479c-0.341-0.488-0.863-1.032-1.626-1.357
  c-1.032-0.439-2.198-0.361-3.466,0.233c-2.314,1.084-2.956,4.14-3.128,5.456l-15.677,8.264V43.97
  c2.126-0.46,3.724-2.355,3.724-4.617c0-2.261-1.598-4.156-3.724-4.616V24.143h4.079c0.44,1.607,1.914,2.792,3.659,2.792
  s3.219-1.185,3.659-2.792h7.306c0.553,0,1-0.448,1-1s-0.447-1-1-1h-8.172c-0.553,0-1,0.448-1,1c0,0.988-0.805,1.792-1.793,1.792
  s-1.793-0.804-1.793-1.792c0-0.552-0.447-1-1-1h-5.945c-0.552,0-1,0.448-1,1V35.63c0,0.553,0.448,1,1,1
  c1.502,0,2.724,1.222,2.724,2.723c0,1.502-1.222,2.724-2.724,2.724c-0.552,0-1,0.447-1,1v5.563c0,0.351,0.184,0.675,0.483,0.856
  c0.159,0.096,0.337,0.144,0.517,0.144c0.16,0,0.32-0.038,0.466-0.115l17.617-9.286c0.309-0.163,0.511-0.475,0.532-0.822
  c0.057-0.905,0.552-3.646,2.037-4.343c0.727-0.341,1.339-0.408,1.821-0.209c0.743,0.31,1.064,1.188,1.065,1.189
  c0.094,0.277,0.305,0.5,0.576,0.608c0.273,0.108,0.579,0.092,0.837-0.044l4.217-2.223c0.329-0.173,0.534-0.514,0.534-0.885v-9.309
  C56.457,23.864,56.286,23.549,56.004,23.365z"/>
<path fill="#e5e622" class="svg-tasting__glass" d="M18.39,20.124v10.17l-6.488,6.488c-0.286,0.286-0.372,0.716-0.217,1.09s0.52,0.617,0.924,0.617h7.966c0.552,0,1-0.447,1-1
  s-0.448-1-1-1h-5.552l5.074-5.074c0.188-0.188,0.293-0.442,0.293-0.707V20.124c3.678-0.191,6.405-1.442,8.095-3.751
  c3.455-4.724,1.198-12.005,1.101-12.313l-0.222-0.697H9.428L9.206,4.06c-0.098,0.308-2.355,7.589,1.101,12.313
  C11.994,18.68,14.718,19.93,18.39,20.124z M10.926,5.362h16.94c0.436,1.798,1.314,6.671-0.996,9.83
  c-1.442,1.972-3.957,2.971-7.475,2.971c-3.515,0-6.028-0.998-7.471-2.966C9.618,12.049,10.492,7.165,10.926,5.362z"/>
</svg>
