<svg version="1.1" class="svg-icon--bottle" xmlns="http://www.w3.org/2000/svg" xmlns:xlink="http://www.w3.org/1999/xlink" x="0px" y="0px" viewBox="0 0 60 60" enable-background="new 0 0 60 60" xml:space="preserve">
<path d="M48.386,13.312c-0.259,0-0.517-0.1-0.713-0.298c-2.886-2.932-6.459-5.12-10.333-6.327c-0.527-0.164-0.821-0.725-0.657-1.252
  c0.165-0.527,0.725-0.82,1.253-0.657c4.187,1.305,8.047,3.667,11.163,6.833c0.387,0.394,0.382,1.027-0.012,1.414
  C48.893,13.216,48.639,13.312,48.386,13.312z"/>
<path d="M11.444,45.679C7.549,45.679,3,41.831,3,30.987C3,18.86,10.665,8.326,22.073,4.775c0.526-0.166,1.088,0.13,1.252,0.657
  c0.165,0.527-0.13,1.088-0.657,1.252C12.1,9.974,5,19.74,5,30.987c0,8.768,3.237,12.691,6.444,12.691
  c2.971,0,4.185-4.438,5.359-8.729c0.551-2.015,1.121-4.098,1.889-5.727c0.236-0.5,0.833-0.711,1.331-0.478
  c0.5,0.236,0.713,0.832,0.478,1.331c-0.694,1.471-1.216,3.38-1.769,5.4C17.424,40.259,15.941,45.679,11.444,45.679z"/>
<path d="M30,58.405c-7.218,0-14-2.854-19.098-8.037c-0.387-0.394-0.382-1.027,0.012-1.414c0.394-0.389,1.026-0.383,1.414,0.012
  c4.718,4.798,10.994,7.439,17.672,7.439c13.785,0,25-11.402,25-25.418c0-9.042-3.568-13.108-6.102-13.108
  c-2.876,0-4.149,4.465-5.381,8.784c-0.645,2.258-1.31,4.593-2.235,6.348c-0.259,0.488-0.859,0.675-1.352,0.418
  c-0.488-0.258-0.676-0.863-0.418-1.352c0.829-1.57,1.438-3.704,2.081-5.962c1.436-5.032,2.919-10.236,7.305-10.236
  c4.026,0,8.102,5.189,8.102,15.108C57,46.105,44.888,58.405,30,58.405z"/>
<path d="M30,51.192c-5.056,0-6.776-2.65-6.847-2.764L23,48.186v-25.68c0-4.812,1.546-6.407,2.675-7.572
  c0.727-0.75,1.128-1.164,1.128-2.293V2.936l0.17-0.253C27.344,2.13,28.4,1.194,30,1.194c1.6,0,2.655,0.936,3.027,1.488l0.17,0.253
  v9.705c0,1.129,0.4,1.542,1.128,2.293C35.454,16.099,37,17.694,37,22.506v25.68l-0.153,0.243C36.776,48.542,35.056,51.192,30,51.192
  z M25,47.551c0.433,0.465,1.838,1.642,5,1.642c3.149,0,4.557-1.168,5-1.645V22.506c0-4.002-1.121-5.159-2.111-6.18
  c-0.793-0.818-1.691-1.746-1.691-3.685V3.624C30.991,3.445,30.595,3.194,30,3.194c-0.595,0-0.991,0.25-1.197,0.429v9.018
  c0,1.939-0.899,2.867-1.692,3.685C26.122,17.347,25,18.504,25,22.506V47.551z"/>
</svg>