<svg version="1.1" class="svg-icon--diamond" xmlns="http://www.w3.org/2000/svg" xmlns:xlink="http://www.w3.org/1999/xlink" x="0px" y="0px" viewBox="0 0 60 60" enable-background="new 0 0 60 60" xml:space="preserve">
<path fill="#ff8c96" d="M56.664,24.859c-0.086-0.545-0.588-0.917-1.145-0.831c-0.545,0.087-0.917,0.599-0.83,1.145
  C54.896,26.472,55,27.804,55,29.132c0,13.785-11.215,25.001-25,25.001S5,42.917,5,29.132c0-1.327,0.104-2.658,0.311-3.957
  c0.086-0.545-0.286-1.058-0.831-1.145c-0.537-0.082-1.057,0.286-1.145,0.831C3.113,26.263,3,27.7,3,29.132
  c0,14.889,12.112,27.001,27,27.001s27-12.112,27-27.001C57,27.699,56.887,26.261,56.664,24.859z"/>
<path fill="#ff8c96" d="M29.284,47.252c0.19,0.236,0.477,0.373,0.779,0.373c0.273,0.023,0.591-0.138,0.781-0.375l23.144-28.926
  c0.305-0.381,0.29-0.928-0.037-1.292L42.446,4.2c-0.189-0.211-0.46-0.333-0.744-0.333H18.425c-0.282,0-0.551,0.119-0.741,0.328
  L6.051,17.027c-0.331,0.365-0.347,0.916-0.039,1.299L29.284,47.252z M30.062,45.027L8.779,18.574h9.103L29.17,41.297l0.004,0.009
  c0.25,0.492,0.853,0.688,1.345,0.438c0.493-0.25,0.688-0.853,0.438-1.345L19.852,18.574h20.453l-8.741,18.032
  c-0.001,0.002-0.004,0.009-0.005,0.01c-0.235,0.5-0.021,1.096,0.479,1.331c0.5,0.235,1.096,0.021,1.331-0.479l8.889-18.894h8.969
  L30.062,45.027z M20.44,16.824l9.623-10.292l9.623,10.292H20.44z M51.079,16.824H42.09L32.141,5.867h9.115L51.079,16.824z
   M18.868,5.867h9.118l-9.949,10.957H8.935L18.868,5.867z"/>
</svg>
